<svg xmlns="http://www.w3.org/2000/svg" viewBox="0 0 200 200">
  <!-- Fondo -->
  <rect width="200" height="200" fill="#f0e0c0"/>
  
  <!-- Contorno de silueta -->
  <path d="M100,40 
           C80,40 65,55 65,75 
           C65,90 75,103 90,107
           L85,130 
           L75,135 
           L75,160 
           L125,160 
           L125,135 
           L115,130 
           L110,107
           C125,103 135,90 135,75
           C135,55 120,40 100,40Z" 
        fill="#75482e" stroke="#3a2d1f" stroke-width="2"/>
  
  <!-- Detalles faciales simples -->
  <circle cx="85" cy="75" r="5" fill="#3a2d1f"/>
  <circle cx="115" cy="75" r="5" fill="#3a2d1f"/>
  
  <!-- Espada decorativa -->
  <line x1="160" y1="40" x2="140" y2="60" stroke="#3a2d1f" stroke-width="3"/>
  <line x1="150" y1="50" x2="170" y2="70" stroke="#3a2d1f" stroke-width="3"/>
  <line x1="170" y1="70" x2="160" y2="120" stroke="#3a2d1f" stroke-width="3"/>
  
  <!-- Escudo decorativo -->
  <path d="M50,60 
           C30,70 30,110 50,130
           C60,120 65,100 65,90
           C65,80 60,70 50,60Z" 
        fill="#a58e62" stroke="#3a2d1f" stroke-width="2"/>
  
  <!-- Texto -->
  <text x="100" y="185" font-family="Arial" font-size="12" fill="#3a2d1f" text-anchor="middle">Personaje D&D</text>
</svg>